<?xml version="1.0" standalone="no"?>
<!DOCTYPE svg PUBLIC "-//W3C//DTD SVG 20010904//EN"
 "http://www.w3.org/TR/2001/REC-SVG-20010904/DTD/svg10.dtd">
<svg version="1.0" xmlns="http://www.w3.org/2000/svg"
 width="700.000000pt" height="700.000000pt" viewBox="0 0 700.000000 700.000000"
 preserveAspectRatio="xMidYMid meet">
<metadata>
Created by potrace 1.14, written by Peter Selinger 2001-2017
</metadata>
<g transform="translate(0.000000,700.000000) scale(0.100000,-0.100000)"
fill="#000000" stroke="none">
<path d="M3308 6995 c-2 -2 -34 -6 -72 -9 -38 -3 -83 -8 -100 -11 -17 -3 -42
-7 -56 -9 -430 -71 -856 -262 -1200 -540 -81 -65 -277 -257 -349 -341 -209
-245 -396 -588 -493 -905 -34 -109 -30 -94 -58 -230 -25 -124 -28 -140 -45
-300 -13 -124 -6 -512 10 -540 1 -3 6 -34 9 -69 4 -36 9 -67 10 -70 2 -3 7
-23 10 -45 20 -124 107 -402 167 -534 104 -227 216 -409 368 -597 64 -80 265
-284 330 -335 24 -19 60 -48 80 -65 21 -16 64 -48 97 -70 32 -22 61 -42 64
-45 14 -15 188 -114 278 -159 118 -59 170 -81 300 -126 l93 -32 4 -454 c4
-486 8 -595 30 -1054 3 -49 7 -148 11 -220 3 -72 7 -152 8 -180 l2 -50 243 -3
c133 -2 241 1 238 5 -3 4 -8 31 -11 58 -5 44 -19 151 -31 240 -4 31 -15 115
-20 150 -1 11 -6 47 -9 80 -4 33 -9 70 -12 83 -2 12 -7 44 -10 70 -2 26 -7 61
-9 77 -3 25 -27 219 -51 425 -3 25 -7 62 -10 83 -11 97 -13 117 -19 182 -3 39
-8 86 -10 105 -3 30 -8 90 -20 255 -15 201 -20 390 -20 810 0 508 6 708 30
968 4 50 4 49 -56 121 -88 103 -287 407 -334 508 -8 18 -19 40 -24 48 -91 153
-275 663 -306 848 -4 23 -10 40 -15 37 -4 -3 -6 4 -3 14 3 10 0 28 -6 40 -8
14 -8 21 -1 21 5 0 10 -5 10 -10 0 -6 9 -29 19 -53 11 -23 40 -91 66 -152 101
-237 225 -470 348 -654 38 -58 85 -125 104 -150 85 -110 228 -269 236 -261 3
3 8 34 12 70 4 36 9 68 11 71 2 4 6 24 9 45 3 22 8 50 11 64 2 14 7 39 10 55
3 17 10 50 15 75 6 25 12 52 14 60 2 8 10 45 19 81 8 37 17 78 20 90 18 91 90
379 156 619 17 63 33 124 36 135 11 52 64 206 59 175 -3 -19 -6 -39 -8 -45 -8
-22 -45 -181 -52 -225 -3 -19 -11 -55 -16 -80 -6 -25 -12 -56 -14 -70 -2 -14
-8 -52 -14 -85 -6 -33 -13 -73 -16 -90 -2 -16 -7 -39 -9 -50 -2 -11 -7 -40
-10 -65 -3 -25 -8 -54 -10 -65 -2 -11 -7 -49 -11 -85 -3 -36 -8 -72 -10 -80
-2 -8 -7 -44 -11 -80 -3 -36 -8 -76 -9 -90 -29 -269 -39 -488 -39 -845 0 -349
13 -641 39 -880 2 -22 7 -67 10 -100 9 -93 15 -147 20 -180 3 -16 7 -52 10
-80 3 -27 10 -79 15 -115 5 -36 12 -83 15 -105 5 -40 22 -144 30 -197 3 -16 7
-43 10 -60 15 -93 70 -391 95 -518 34 -171 110 -536 124 -595 7 -30 44 -204
71 -335 14 -63 36 -169 50 -235 14 -66 25 -123 25 -127 0 -5 236 -8 525 -8
491 1 524 2 516 18 -5 9 -51 121 -101 247 -51 127 -126 311 -167 410 -99 237
-284 699 -340 850 -77 206 -143 388 -140 390 1 1 59 18 130 38 553 157 1029
487 1375 955 240 325 425 777 469 1147 2 21 6 42 8 45 7 11 19 253 18 355 -2
174 -15 299 -49 470 -30 149 -30 148 -55 231 -171 568 -525 1054 -1013 1392
-50 35 -98 67 -106 70 -8 3 -31 17 -50 29 -132 91 -531 252 -690 280 -14 2
-41 8 -60 13 -19 5 -51 12 -70 15 -19 3 -42 8 -50 10 -8 2 -42 7 -75 11 -33 3
-69 8 -80 11 -22 6 -462 13 -467 8z m203 -1446 c-5 -13 -10 -19 -10 -12 -1 15
10 45 15 40 3 -2 0 -15 -5 -28z m649 -328 c-6 -12 -8 -27 -4 -33 4 -6 3 -8 -2
-5 -5 3 -23 -20 -39 -51 -47 -92 -185 -305 -215 -332 -3 -3 -25 -30 -50 -60
-95 -115 -381 -379 -411 -380 -4 0 -5 26 -4 58 2 31 4 75 4 97 1 39 4 42 91
104 120 85 285 227 390 337 80 83 206 232 233 274 15 25 22 17 7 -9z m694
-963 c-15 -40 -31 -79 -36 -85 -6 -7 -8 -13 -5 -13 3 0 -14 -41 -39 -90 -24
-50 -44 -93 -44 -95 0 -8 -123 -209 -159 -260 -110 -156 -329 -391 -466 -500
-27 -22 -52 -43 -55 -46 -3 -3 -41 -32 -85 -65 -197 -145 -414 -280 -420 -262
-5 19 -45 271 -42 274 1 1 72 35 157 76 388 186 694 428 949 748 75 94 212
294 245 358 27 53 27 36 0 -40z"/>
</g>
</svg>
