<svg baseProfile="tiny" id="Ebene_1" xmlns="http://www.w3.org/2000/svg" width="100.45" height="100.45" viewBox="173.946 0 100.45 100.45"><path d="M228.242 100.451c-4.694-22.836-12.218-48.696-3.418-81.562-.804 6.416-1.372 12.699-1.625 19.113 5.015-3.753 8.438-7.969 10.712-13.059-1.981 6.244-5.146 11.795-10.827 16.546-.101 6.144.761 12.291 1.752 18.355 10.353-5.999 16.141-12.566 19.256-21.878-1.736 7.055-4.517 13.31-9.586 18.624-2.771 2.866-5.776 5.364-8.913 7.714 2.167 12.26 6.354 24.246 9.981 36.145h-7.332v.002zm-10.346-46.925c.073-1.78.202-3.554.364-5.321-5.46-6.486-8.845-13.79-10.87-23.268.886 7.74 2.282 15.518 6.291 22.339 1.299 2.207 2.718 4.268 4.215 6.25z"/><path fill="#A9BA2F" d="M261.118 36.945C261.118 16.544 244.574 0 224.17 0s-36.948 16.544-36.948 36.945c0 16.687 11.064 30.763 26.255 35.35-.23 9.366.309 18.796.741 28.15h6.879c-1.575-12.073-3.441-24.133-3.394-36.246.018-3.557.041-7.137.194-10.716-1.497-1.973-2.929-4.009-4.217-6.207-4.008-6.823-5.405-14.599-6.29-22.339 2.663 6.616 5.684 12.976 10.651 18.219.246.24.5.472.753.703.144-.984.246-1.979.438-2.959 1.462-7.511 3.362-14.693 5.586-22.015-.678 5.436-1.2 10.769-1.501 16.173 4.272-2.802 7.623-6.076 10.593-10.117-1.984 6.248-5.148 11.795-10.83 16.546-.079 4.738.437 9.482 1.118 14.192 2.032-.853 4.027-1.811 5.906-2.964 6.213-3.811 10.396-8.454 13.979-14.75-1.737 7.055-4.518 13.309-9.584 18.624-2.771 2.863-5.779 5.354-8.909 7.699 2.161 12.262 6.351 24.252 9.979 36.153h7.641c-3.593-9.092-7.636-18.197-10.866-27.504 16.473-3.725 28.774-18.399 28.774-35.992z"/></svg>