<?xml version="1.0" encoding="utf-8"?>
<!-- Generator: Adobe Illustrator 16.0.5, SVG Export Plug-In . SVG Version: 6.00 Build 0)  -->
<!DOCTYPE svg PUBLIC "-//W3C//DTD SVG 1.1 Tiny//EN" "http://www.w3.org/Graphics/SVG/1.1/DTD/svg11-tiny.dtd">
<svg version="1.1" baseProfile="tiny" id="Ebene_1" xmlns="http://www.w3.org/2000/svg" xmlns:xlink="http://www.w3.org/1999/xlink"
	 x="0px" y="0px" width="100.45px" height="100.45px" viewBox="173.946 0 100.45 100.45" xml:space="preserve">
<path d="M228.242,100.451c-4.694-22.836-12.218-48.696-3.418-81.562c-0.804,6.416-1.372,12.699-1.625,19.113
	c5.015-3.753,8.438-7.969,10.712-13.059c-1.981,6.244-5.146,11.795-10.827,16.546c-0.101,6.144,0.761,12.291,1.752,18.355
	c10.353-5.999,16.141-12.566,19.256-21.878c-1.736,7.055-4.517,13.31-9.586,18.624c-2.771,2.866-5.776,5.364-8.913,7.714
	c2.167,12.26,6.354,24.246,9.981,36.145h-7.332V100.451L228.242,100.451z M217.896,53.526c0.073-1.78,0.202-3.554,0.364-5.321
	c-5.46-6.486-8.845-13.79-10.87-23.268c0.886,7.74,2.282,15.518,6.291,22.339C214.98,49.483,216.399,51.544,217.896,53.526z"/>
<path fill="#A9BA2F" d="M261.118,36.945C261.118,16.544,244.574,0,224.17,0s-36.948,16.544-36.948,36.945
	c0,16.687,11.064,30.763,26.255,35.35c-0.23,9.366,0.309,18.796,0.741,28.15h6.879c-1.575-12.073-3.441-24.133-3.394-36.246
	c0.018-3.557,0.041-7.137,0.194-10.716c-1.497-1.973-2.929-4.009-4.217-6.207c-4.008-6.823-5.405-14.599-6.29-22.339
	c2.663,6.616,5.684,12.976,10.651,18.219c0.246,0.24,0.5,0.472,0.753,0.703c0.144-0.984,0.246-1.979,0.438-2.959
	c1.462-7.511,3.362-14.693,5.586-22.015c-0.678,5.436-1.2,10.769-1.501,16.173c4.272-2.802,7.623-6.076,10.593-10.117
	c-1.984,6.248-5.148,11.795-10.83,16.546c-0.079,4.738,0.437,9.482,1.118,14.192c2.032-0.853,4.027-1.811,5.906-2.964
	c6.213-3.811,10.396-8.454,13.979-14.75c-1.737,7.055-4.518,13.309-9.584,18.624c-2.771,2.863-5.779,5.354-8.909,7.699
	c2.161,12.262,6.351,24.252,9.979,36.153h7.641c-3.593-9.092-7.636-18.197-10.866-27.504
	C248.817,69.212,261.118,54.538,261.118,36.945z"/>
</svg>
