<svg viewBox="0 0 566.9 140.4" xmlns="http://www.w3.org/2000/svg"><g fill="#fff"><path d="m208.1 75.8c-7.5 0-13.9 2.2-17.4 3.6-3.1-2.3-7.4-3.6-12.6-3.6-10 0-18 3.8-19.7 4.7v43.5h8.7v-38.6c2.8-.7 6.4-1.4 10.3-1.4 9.7 0 10.9 4.5 10.9 9v31h8.7v-30.4c0-2.5-.3-4.9-1.1-7 2.7-1.2 7.3-2.7 12.7-2.7 8.6 0 9.8 4.6 9.8 9.1v31h8.6v-30.5c0-11.1-7-17.7-18.9-17.7z"/><path d="m260.5 75.9c-10.2 0-22.3 4.3-22.3 24.4s12.1 24.4 22.3 24.4 22.3-4.3 22.3-24.4-12.2-24.4-22.3-24.4zm0 41.1c-7.1 0-13.6-2-13.6-16.7s6.5-16.7 13.6-16.7 13.6 2 13.6 16.7-6.5 16.7-13.6 16.7z"/><path d="m324.2 77.3c-3.4-.9-6.7-1.4-10.2-1.4-9.9 0-21.7 4.1-21.7 23.9 0 21.8 13.1 25 21 25 18.1 0 19.5-11.8 19.5-15.4v-50.8h-8.6zm-.1 32.6c0 4.7-3.7 7.1-10.9 7.1-5.7 0-12.3-2-12.4-17.4 0-14.1 6.4-16.1 13.1-16.1 3.6 0 7 .7 10.2 2z"/><path d="m400.4 76c-5.5 0-12.8 1.6-16.4 2.8-3.2-1.9-7-2.8-11.6-2.8-12.5 0-23 4.8-23.4 4.9v43.1h16.4v-34.8c1.1-.3 4.3-.9 5.7-.9 5.3 0 6.2 4.1 6.2 6.9v28.8h16.3v-28c0-2.3-.7-5.6-1.2-7 1.4-.4 5-.9 6.5-.9 5.5 0 6.5 4.3 6.5 7.3v28.6h16.3v-27.9c0-13.4-8.3-20.2-21.3-20.1z"/><path d="m454.8 76c-14.5 0-22.8 8.6-22.8 24.3 0 15.8 8.3 24.3 22.8 24.3s22.8-8.5 22.8-24.3c0-15.7-8.3-24.3-22.8-24.3zm0 36.8c-4.1 0-6.5-4-6.5-12.5s2.4-12.5 6.5-12.5c4 0 6.4 4 6.4 12.5 0 8.6-2.3 12.6-6.4 12.5z"/><path d="m488.3 124h16.3v-33.5c1.8-.3 4.9-.8 10.7-.9v-13.7c-15.4.3-25.4 4.7-27 5.4z"/><path d="m566.5 98.9c0-11.9-6.5-23.1-21.5-23.1-15.6 0-21.7 10.9-21.7 24.9 0 20.1 13 23.9 22.5 23.9 7.3 0 13.6-1.7 18.6-4.9v-11.5c-3.3 2-8.1 3.7-14.9 3.7-4.9 0-10.1-3.3-10.1-7.9h26.9c.2-1.5.3-3.2.2-5.1zm-26.8-4.6c.2-3.9 2.1-8.1 5.3-8.1 3.3 0 5.1 5.1 5.3 8.1z"/><path d="m5.2 67.9v14.9c0 5.2-5.6 6.2-5.6 6.2v12.9s5.6 1 5.6 6.2v14.9c0 10.1 5.4 17.9 17.8 17.9h3.4v-12.9h-2.5c-5.4 0-5.4-3.8-5.4-7.4v-13.1c0-7.4-5.5-10.9-10.7-12 5.2-1.1 10.7-4.6 10.7-12v-13.1c0-3.6 0-7.4 5.4-7.4h2.5v-13h-3.4c-12.3 0-17.7 7.8-17.8 17.9z"/><path d="m101.4 82.8v-14.9c0-10.1-5.4-17.9-17.8-17.9h-3.4v13h2.5c5.4 0 5.4 3.8 5.4 7.4v13.1c0 7.4 5.5 10.9 10.7 12-5.2 1.1-10.7 4.6-10.7 12v13.1c0 3.6 0 7.4-5.4 7.4h-2.5v13h3.4c12.4 0 17.8-7.8 17.8-17.9v-14.9c0-5.2 5.6-6.2 5.6-6.2v-13s-5.6-1-5.6-6.2z"/><path d="m59.7 75.1h-12.6v14.1h-14.2v12.6h14.2v14.1h12.6v-14.1h14v-12.6h-14z"/><path d="m176.2 11.5c-1.8-.7-4.1-1-7-1-.8 0-1.7 0-2.6 0s-1.8.1-2.6.1c-.8.1-1.7.1-2.4.2v4.4c.8-.1 1.7-.1 2.7-.2s2.1-.1 3.3-.1c1.1 0 2.3-.1 3.3-.1 1.9 0 3.4.5 4.3 1.5 1 1 1.5 2.4 1.5 4.3v.7h-7c-2.4 0-4.4.3-6.1 1s-3 1.7-3.9 3-1.3 3-1.3 4.9.4 3.5 1.2 4.9 2 2.4 3.5 3.1 3.3 1.1 5.4 1.1c1.9 0 3.6-.3 5-1s2.4-1.7 3.2-3c.4-.6.7-1.4.9-2.2v5.5h4v-17.6c0-2.6-.4-4.7-1.3-6.2-1-1.6-2.3-2.7-4.1-3.3zm.4 16.8c0 1.7-.4 3.2-1.1 4.2s-1.6 1.8-2.7 2.2-2.2.7-3.4.7c-2 0-3.6-.5-4.6-1.4-1.1-.9-1.6-2.2-1.6-3.7s.5-2.8 1.6-3.7c1.1-1 2.6-1.5 4.6-1.5h7.2z"/><path d="m201.2 34.6h-1.1l-7.9-23.8h-5.2l9.5 27.7h1.2 2.4 1.3 2.3 1.1l8.2-27.7h-4.8z"/><path d="m234.8 11.5c-1.8-.7-4.1-1-7-1-.8 0-1.7 0-2.6 0s-1.8.1-2.6.1c-.8.1-1.7.1-2.4.2v4.4c.8-.1 1.7-.1 2.7-.2 1 0 2.1-.1 3.3-.1 1.1 0 2.3-.1 3.3-.1 1.9 0 3.4.5 4.3 1.5 1 1 1.5 2.4 1.5 4.3v.7h-7c-2.4 0-4.4.3-6.1 1s-3 1.7-3.9 3-1.3 3-1.3 4.9.4 3.5 1.2 4.9 2 2.4 3.5 3.1 3.3 1.1 5.4 1.1c1.9 0 3.6-.3 5-1s2.4-1.7 3.2-3c.4-.6.7-1.4.9-2.2v5.5h4v-17.6c0-2.6-.4-4.7-1.3-6.2-.9-1.6-2.3-2.7-4.1-3.3zm.5 16.8c0 1.7-.4 3.2-1.1 4.2s-1.6 1.8-2.7 2.2-2.2.7-3.4.7c-2 0-3.6-.5-4.6-1.4-1.1-.9-1.6-2.2-1.6-3.7s.5-2.8 1.6-3.7c1.1-1 2.6-1.5 4.6-1.5h7.2z"/><path d="m252 6.3c1.1 0 1.9-.3 2.5-.9.5-.6.8-1.3.8-2.2s-.3-1.6-.8-2.2-1.4-.9-2.5-.9-1.9.3-2.5.9c-.5.6-.8 1.3-.8 2.2s.3 1.6.8 2.2c.6.6 1.4.9 2.5.9z"/><path d="m246.4 10.8v3.9h4.2v23.8h5v-23.8-3.9h-5z"/><path d="m261.8.6v3.9h3.8v34h5v-34-3.9h-5z"/><path d="m295.6 11.5c-1.8-.7-4.1-1-7-1-.8 0-1.7 0-2.6 0s-1.8.1-2.6.1c-.8.1-1.7.1-2.4.2v4.4c.8-.1 1.7-.1 2.7-.2s2.1-.1 3.3-.1c1.1 0 2.3-.1 3.3-.1 1.9 0 3.4.5 4.3 1.5 1 1 1.5 2.4 1.5 4.3v.7h-7c-2.4 0-4.4.3-6.1 1s-3 1.7-3.9 3-1.3 3-1.3 4.9.4 3.5 1.2 4.9 2 2.4 3.5 3.1 3.3 1.1 5.4 1.1c1.9 0 3.6-.3 5-1s2.4-1.7 3.2-3c.4-.6.7-1.4.9-2.2v5.5h4v-17.6c0-2.6-.4-4.7-1.3-6.2-.9-1.6-2.3-2.7-4.1-3.3zm.5 16.8c0 1.7-.4 3.2-1.1 4.2s-1.6 1.8-2.7 2.2-2.2.7-3.4.7c-2 0-3.6-.5-4.6-1.4-1.1-.9-1.6-2.2-1.6-3.7s.5-2.8 1.6-3.7c1.1-1 2.6-1.5 4.6-1.5h7.2z"/><path d="m334.8 14c-1.2-1.3-2.6-2.3-4.2-3.1-1.6-.7-3.4-1.1-5.4-1.1-2.1 0-4 .5-5.8 1.4s-3.2 2.3-4.2 4.2c0 0 0 .1-.1.1v-15h-5v38h4v-5.8c.1.3.2.5.4.8 1 1.9 2.5 3.4 4.2 4.4 1.8 1 3.8 1.5 6.1 1.5 2 0 3.9-.4 5.6-1.1 1.7-.8 3.1-1.8 4.3-3.1s2.1-2.9 2.8-4.6c.6-1.7 1-3.6 1-5.6v-.9c0-2-.3-3.8-.9-5.5-.7-1.8-1.6-3.3-2.8-4.6zm-2.5 16c-.8 1.6-1.8 2.8-3.2 3.7s-3 1.4-4.9 1.4c-1.6 0-3.2-.4-4.6-1.1s-2.6-1.8-3.4-3.1c-.9-1.4-1.3-3-1.3-4.9v-2.4c0-2 .4-3.7 1.3-5.1s2-2.5 3.4-3.2 3-1.1 4.6-1.1c1.8 0 3.4.4 4.8 1.3 1.4.8 2.5 2.1 3.3 3.6.8 1.6 1.2 3.4 1.2 5.5s-.5 3.9-1.2 5.4z"/><path d="m342.4.6v3.9h3.8v34h5v-34-3.9h-5z"/><path d="m379.7 11.8c-2-1.3-4.4-2-7.5-2-2.3 0-4.3.4-6.1 1.2-1.7.8-3.1 1.9-4.2 3.3s-1.9 2.9-2.5 4.6c-.5 1.7-.8 3.4-.8 5.3v.9c0 1.8.3 3.5.8 5.2s1.4 3.2 2.5 4.6 2.5 2.5 4.3 3.3 3.9 1.2 6.3 1.2c2.2 0 4.1-.4 5.9-1.1 1.7-.7 3.2-1.8 4.3-3.2s1.9-3 2.3-4.9h-4.6c-.3 1.3-1.1 2.4-2.5 3.4s-3.1 1.5-5.3 1.5c-2.1 0-3.8-.5-5.1-1.4-1.4-.9-2.3-2.2-3-3.7-.5-1.3-.8-2.8-.9-4.4h22v-2.2c0-2.3-.5-4.5-1.4-6.6-1-2-2.5-3.7-4.5-5zm-16 10c.2-.9.4-1.8.7-2.6.7-1.5 1.7-2.7 3-3.7 1.3-.9 2.9-1.4 4.9-1.4 1.9 0 3.5.4 4.7 1.2s2.2 1.9 2.8 3.4c.4.9.7 2 .8 3.1z"/><path d="m419.9 11.5c-1.8-.7-4.1-1-7-1-.8 0-1.7 0-2.6 0s-1.8.1-2.6.1c-.8.1-1.7.1-2.4.2v4.4c.8-.1 1.7-.1 2.7-.2 1 0 2.1-.1 3.3-.1 1.1 0 2.3-.1 3.3-.1 1.9 0 3.4.5 4.3 1.5 1 1 1.5 2.4 1.5 4.3v.7h-7c-2.4 0-4.4.3-6.1 1s-3 1.7-3.9 3-1.3 3-1.3 4.9.4 3.5 1.2 4.9 2 2.4 3.5 3.1 3.3 1.1 5.4 1.1c1.9 0 3.6-.3 5-1s2.4-1.7 3.2-3c.4-.6.7-1.4.9-2.2v5.5h4v-17.6c0-2.6-.4-4.7-1.3-6.2-1-1.6-2.3-2.7-4.1-3.3zm.5 16.8c0 1.7-.4 3.2-1.1 4.2s-1.6 1.8-2.7 2.2-2.2.7-3.4.7c-2 0-3.6-.5-4.6-1.4-1.1-.9-1.6-2.2-1.6-3.7s.5-2.8 1.6-3.7c1.1-1 2.6-1.5 4.6-1.5h7.2z"/><path d="m449.4 14.5v-3.7h-9.6v-8.5h-4.8v8.4h-4.8v3.7h4.8v14.6c0 2.5.4 4.4 1.2 5.8s2 2.5 3.5 3 3.3.9 5.4.9h4.3v-4.5h-4.9c-1.5 0-2.6-.4-3.5-1.2-.8-.8-1.2-2-1.2-3.5v-15z"/></g></svg>