<?xml version="1.0" standalone="no"?>
<!DOCTYPE svg PUBLIC "-//W3C//DTD SVG 20010904//EN"
 "http://www.w3.org/TR/2001/REC-SVG-20010904/DTD/svg10.dtd">
<svg version="1.0" xmlns="http://www.w3.org/2000/svg"
 width="700.000000pt" height="700.000000pt" viewBox="0 0 700.000000 700.000000"
 preserveAspectRatio="xMidYMid meet">
<metadata>
Created by potrace 1.11, written by Peter Selinger 2001-2013
</metadata>
<g transform="translate(0.000000,700.000000) scale(0.100000,-0.100000)"
fill="#000000" stroke="none">
<path d="M3305 6993 c-83 -9 -221 -25 -235 -28 -166 -34 -234 -51 -325 -79
-896 -276 -1579 -1026 -1765 -1937 -24 -118 -26 -130 -45 -304 -11 -94 -5
-425 8 -510 4 -22 9 -65 12 -95 3 -30 10 -71 15 -90 5 -19 16 -70 25 -113 19
-93 80 -281 128 -398 197 -474 530 -874 969 -1165 146 -96 380 -213 537 -268
l123 -43 4 -449 c1 -247 5 -501 8 -564 16 -346 24 -522 32 -705 6 -139 10
-219 13 -238 1 -4 108 -6 239 -5 169 2 236 6 235 14 -2 13 -13 104 -18 149 -2
17 -6 46 -9 65 -6 40 -14 96 -22 155 -3 22 -7 54 -9 70 -2 17 -6 53 -10 80 -3
28 -8 64 -10 80 -11 73 -40 309 -50 413 -3 23 -7 55 -9 70 -3 15 -7 52 -11 82
-3 30 -8 71 -10 90 -3 19 -7 60 -10 90 -3 30 -7 76 -10 103 -10 95 -14 144
-21 237 -3 52 -8 108 -9 124 -27 223 -27 1342 0 1661 3 28 7 74 9 103 5 51 4
53 -56 129 -268 337 -473 738 -604 1178 -33 111 -64 230 -71 270 -3 17 -9 32
-14 35 -4 3 -4 12 1 20 6 10 10 11 10 3 0 -7 11 -36 24 -65 13 -29 45 -102 70
-161 162 -380 356 -696 586 -954 45 -51 85 -93 89 -93 4 0 15 48 24 108 37
235 132 659 234 1032 25 91 46 174 49 184 7 39 68 235 71 232 2 -2 -6 -41 -17
-87 -12 -46 -24 -97 -26 -114 -3 -16 -16 -79 -29 -140 -13 -60 -26 -128 -29
-150 -4 -22 -13 -76 -21 -120 -8 -44 -17 -100 -20 -125 -3 -25 -8 -56 -10 -70
-2 -14 -7 -45 -10 -70 -3 -25 -10 -76 -15 -115 -5 -38 -11 -101 -14 -140 -12
-147 -18 -211 -22 -235 -22 -136 -22 -990 0 -1230 2 -19 7 -73 10 -120 15
-185 22 -252 41 -405 2 -16 7 -57 10 -90 3 -33 8 -71 10 -85 9 -51 16 -96 20
-125 7 -60 16 -121 25 -170 5 -27 12 -66 14 -85 8 -48 14 -85 26 -150 5 -30
19 -107 30 -170 24 -131 102 -513 166 -815 3 -11 9 -40 14 -65 5 -25 36 -173
70 -330 33 -156 60 -288 60 -292 0 -4 236 -8 525 -8 492 1 524 2 515 18 -5 9
-37 87 -71 172 -33 85 -67 169 -74 185 -8 17 -39 93 -70 170 -280 694 -358
892 -435 1100 -49 132 -91 247 -95 256 -6 15 34 31 141 54 19 4 207 70 264 93
69 27 215 100 307 153 549 317 961 825 1160 1429 19 58 36 112 38 120 29 127
55 256 60 300 3 30 8 66 10 80 13 90 17 153 17 290 -1 209 -11 322 -47 505
-65 328 -192 636 -376 915 -45 69 -85 127 -88 130 -3 3 -33 39 -65 80 -80 102
-292 311 -396 392 -96 74 -245 178 -255 178 -4 0 -19 9 -34 20 -107 76 -411
207 -612 264 -82 23 -275 63 -344 71 -32 4 -68 9 -80 12 -24 5 -427 11 -470 6z
m216 -1406 c-10 -9 -11 -8 -5 6 3 10 9 15 12 12 3 -3 0 -11 -7 -18z m-8 -37
c-3 -12 -8 -19 -11 -16 -5 6 5 36 12 36 2 0 2 -9 -1 -20z m647 -329 c-6 -12
-7 -21 -3 -21 4 0 3 -4 -3 -8 -6 -4 -28 -38 -49 -77 -57 -105 -57 -105 -104
-175 -98 -144 -258 -326 -393 -445 -49 -43 -165 -135 -171 -135 -3 0 -4 21 -2
48 2 26 3 70 4 98 l1 50 77 54 c216 151 490 416 618 597 31 43 45 51 25 14z
m717 -906 c0 -8 -4 -15 -7 -15 -4 0 -10 -12 -13 -27 -3 -16 -13 -45 -21 -65
-9 -21 -16 -40 -16 -43 1 -17 -166 -326 -219 -405 -124 -185 -334 -415 -496
-545 -28 -22 -52 -43 -55 -46 -25 -28 -206 -153 -387 -267 -123 -78 -121 -78
-129 2 -1 17 -5 46 -8 64 -3 17 -8 46 -11 62 -3 17 -7 43 -10 59 -5 27 -1 31
58 57 338 152 609 335 847 574 164 164 309 350 419 538 23 40 43 72 45 72 1 0
3 -7 3 -15z"/>
</g>
</svg>
