<svg version="1" xmlns="http://www.w3.org/2000/svg" width="933.333" height="933.333" viewBox="0 0 700.000000 700.000000"><path d="M330.5.7c-8.3.9-22.1 2.5-23.5 2.8-16.6 3.4-23.4 5.1-32.5 7.9C184.9 39 116.6 114 98 205.1c-2.4 11.8-2.6 13-4.5 30.4-1.1 9.4-.5 42.5.8 51 .4 2.2.9 6.5 1.2 9.5.3 3 1 7.1 1.5 9 .5 1.9 1.6 7 2.5 11.3 1.9 9.3 8 28.1 12.8 39.8 19.7 47.4 53 87.4 96.9 116.5 14.6 9.6 38 21.3 53.7 26.8l12.3 4.3.4 44.9c.1 24.7.5 50.1.8 56.4 1.6 34.6 2.4 52.2 3.2 70.5.6 13.9 1 21.9 1.3 23.8.1.4 10.8.6 23.9.5 16.9-.2 23.6-.6 23.5-1.4-.2-1.3-1.3-10.4-1.8-14.9-.2-1.7-.6-4.6-.9-6.5-.6-4-1.4-9.6-2.2-15.5-.3-2.2-.7-5.4-.9-7-.2-1.7-.6-5.3-1-8-.3-2.8-.8-6.4-1-8-1.1-7.3-4-30.9-5-41.3-.3-2.3-.7-5.5-.9-7-.3-1.5-.7-5.2-1.1-8.2-.3-3-.8-7.1-1-9-.3-1.9-.7-6-1-9-.3-3-.7-7.6-1-10.3-1-9.5-1.4-14.4-2.1-23.7-.3-5.2-.8-10.8-.9-12.4-2.7-22.3-2.7-134.2 0-166.1.3-2.8.7-7.4.9-10.3.5-5.1.4-5.3-5.6-12.9-26.8-33.7-47.3-73.8-60.4-117.8-3.3-11.1-6.4-23-7.1-27-.3-1.7-.9-3.2-1.4-3.5-.4-.3-.4-1.2.1-2 .6-1 1-1.1 1-.3 0 .7 1.1 3.6 2.4 6.5 1.3 2.9 4.5 10.2 7 16.1 16.2 38 35.6 69.6 58.6 95.4 4.5 5.1 8.5 9.3 8.9 9.3.4 0 1.5-4.8 2.4-10.8 3.7-23.5 13.2-65.9 23.4-103.2 2.5-9.1 4.6-17.4 4.9-18.4.7-3.9 6.8-23.5 7.1-23.2.2.2-.6 4.1-1.7 8.7-1.2 4.6-2.4 9.7-2.6 11.4-.3 1.6-1.6 7.9-2.9 14-1.3 6-2.6 12.8-2.9 15-.4 2.2-1.3 7.6-2.1 12s-1.7 10-2 12.5c-.3 2.5-.8 5.6-1 7-.2 1.4-.7 4.5-1 7-.3 2.5-1 7.6-1.5 11.5-.5 3.8-1.1 10.1-1.4 14-1.2 14.7-1.8 21.1-2.2 23.5-2.2 13.6-2.2 99 0 123 .2 1.9.7 7.3 1 12 1.5 18.5 2.2 25.2 4.1 40.5.2 1.6.7 5.7 1 9 .3 3.3.8 7.1 1 8.5.9 5.1 1.6 9.6 2 12.5.7 6 1.6 12.1 2.5 17 .5 2.7 1.2 6.6 1.4 8.5.8 4.8 1.4 8.5 2.6 15 .5 3 1.9 10.7 3 17 2.4 13.1 10.2 51.3 16.6 81.5.3 1.1.9 4 1.4 6.5.5 2.5 3.6 17.3 7 33 3.3 15.6 6 28.8 6 29.2 0 .4 23.6.8 52.5.8 49.2-.1 52.4-.2 51.5-1.8-.5-.9-3.7-8.7-7.1-17.2-3.3-8.5-6.7-16.9-7.4-18.5-.8-1.7-3.9-9.3-7-17-28-69.4-35.8-89.2-43.5-110-4.9-13.2-9.1-24.7-9.5-25.6-.6-1.5 3.4-3.1 14.1-5.4 1.9-.4 20.7-7 26.4-9.3 6.9-2.7 21.5-10 30.7-15.3 54.9-31.7 96.1-82.5 116-142.9 1.9-5.8 3.6-11.2 3.8-12 2.9-12.7 5.5-25.6 6-30 .3-3 .8-6.6 1-8 1.3-9 1.7-15.3 1.7-29-.1-20.9-1.1-32.2-4.7-50.5-6.5-32.8-19.2-63.6-37.6-91.5-4.5-6.9-8.5-12.7-8.8-13-.3-.3-3.3-3.9-6.5-8-8-10.2-29.2-31.1-39.6-39.2-9.6-7.4-24.5-17.8-25.5-17.8-.4 0-1.9-.9-3.4-2-10.7-7.6-41.1-20.7-61.2-26.4-8.2-2.3-27.5-6.3-34.4-7.1-3.2-.4-6.8-.9-8-1.2-2.4-.5-42.7-1.1-47-.6zm21.6 140.6c-1 .9-1.1.8-.5-.6.3-1 .9-1.5 1.2-1.2.3.3 0 1.1-.7 1.8zm-.8 3.7c-.3 1.2-.8 1.9-1.1 1.6-.5-.6.5-3.6 1.2-3.6.2 0 .2.9-.1 2zm64.7 32.9c-.6 1.2-.7 2.1-.3 2.1.4 0 .3.4-.3.8s-2.8 3.8-4.9 7.7c-5.7 10.5-5.7 10.5-10.4 17.5-9.8 14.4-25.8 32.6-39.3 44.5-4.9 4.3-16.5 13.5-17.1 13.5-.3 0-.4-2.1-.2-4.8.2-2.6.3-7 .4-9.8l.1-5 7.7-5.4c21.6-15.1 49-41.6 61.8-59.7 3.1-4.3 4.5-5.1 2.5-1.4zm71.7 90.6c0 .8-.4 1.5-.7 1.5-.4 0-1 1.2-1.3 2.7-.3 1.6-1.3 4.5-2.1 6.5-.9 2.1-1.6 4-1.6 4.3.1 1.7-16.6 32.6-21.9 40.5-12.4 18.5-33.4 41.5-49.6 54.5-2.8 2.2-5.2 4.3-5.5 4.6-2.5 2.8-20.6 15.3-38.7 26.7-12.3 7.8-12.1 7.8-12.9-.2-.1-1.7-.5-4.6-.8-6.4-.3-1.7-.8-4.6-1.1-6.2-.3-1.7-.7-4.3-1-5.9-.5-2.7-.1-3.1 5.8-5.7 33.8-15.2 60.9-33.5 84.7-57.4 16.4-16.4 30.9-35 41.9-53.8 2.3-4 4.3-7.2 4.5-7.2.1 0 .3.7.3 1.5z"/></svg>