<?xml version="1.0" encoding="utf-8"?>
<!-- Generator: Adobe Illustrator 16.0.5, SVG Export Plug-In . SVG Version: 6.00 Build 0)  -->
<!DOCTYPE svg PUBLIC "-//W3C//DTD SVG 1.1 Tiny//EN" "http://www.w3.org/Graphics/SVG/1.1/DTD/svg11-tiny.dtd">
<svg version="1.1" baseProfile="tiny" id="Ebene_1" xmlns="http://www.w3.org/2000/svg" xmlns:xlink="http://www.w3.org/1999/xlink"
	 x="0px" y="0px" width="400px" height="100.439px" viewBox="-203.314 444.153 400 100.439" xml:space="preserve">
<path d="M11.657,544.603c-4.697-22.834-12.221-48.695-3.42-81.563c-0.804,6.416-1.375,12.702-1.625,19.113
	c5.016-3.751,8.44-7.969,10.712-13.058c-1.98,6.244-5.146,11.795-10.827,16.546c-0.102,6.141,0.761,12.291,1.752,18.354
	c10.352-5.999,16.137-12.566,19.256-21.876c-1.738,7.055-4.519,13.308-9.584,18.624c-2.771,2.866-5.777,5.367-8.913,7.715
	c2.165,12.259,6.352,24.245,9.981,36.142h-7.333V544.603z M1.309,497.681c0.075-1.781,0.201-3.555,0.363-5.323
	c-5.459-6.486-8.843-13.79-10.87-23.267c0.886,7.741,2.282,15.518,6.292,22.34C-1.625,493.596-0.22,495.682,1.309,497.681z"/>
<path fill="#FFFFFF" d="M44.531,481.1c0-20.403-16.542-36.947-36.949-36.947c-20.404,0-36.948,16.544-36.948,36.947
	c0,16.687,11.065,30.763,26.254,35.35c-0.229,9.367,0.311,18.794,0.744,28.153h6.877c-1.576-12.075-3.442-24.136-3.39-36.251
	c0.014-3.554,0.039-7.136,0.193-10.715c-1.528-1.98-2.937-4.054-4.215-6.206c-4.009-6.822-5.406-14.599-6.292-22.34
	c2.665,6.617,5.684,12.975,10.651,18.22c0.249,0.24,0.502,0.471,0.755,0.704c0.143-0.986,0.247-1.979,0.439-2.959
	c1.46-7.513,3.364-14.694,5.586-22.017c-0.688,5.373-1.188,10.77-1.501,16.176c4.271-2.804,7.623-6.078,10.59-10.118
	c-1.98,6.248-5.147,11.795-10.829,16.546c-0.077,4.738,0.436,9.483,1.122,14.19c2.041-0.834,4.015-1.825,5.906-2.961
	c6.213-3.81,10.396-8.455,13.981-14.75c-1.738,7.055-4.517,13.307-9.583,18.623c-2.772,2.864-5.779,5.354-8.911,7.7
	c2.161,12.264,6.35,24.254,9.979,36.157h7.64c-3.594-9.094-7.633-18.201-10.866-27.506C32.229,513.366,44.531,498.689,44.531,481.1z
	 M-184.624,487.051h-6.371v36.771c0,0.594-1.273,1.021-2.888,1.021c-1.528,0-2.803-0.427-2.803-1.021v-36.771h-5.695
	c-0.509,0-0.934-1.105-0.934-2.549s0.425-2.548,0.934-2.548h5.693v-13.589c0-0.594,1.274-0.934,2.803-0.934
	c1.614,0,2.888,0.34,2.888,0.934v13.589h6.37c0.595,0,0.936,1.104,0.936,2.548S-184.029,487.051-184.624,487.051z M-164.782,486.456
	h-3.568c-2.038,0-3.566,0.765-3.566,1.698v35.667c0,0.594-1.274,1.021-2.889,1.021c-1.528,0-2.803-0.427-2.803-1.021v-37.876
	c0-2.548,4.162-4.585,9.26-4.585h3.567c0.51,0,0.935,1.105,0.935,2.549C-163.848,485.266-164.271,486.456-164.782,486.456z
	 M-138.884,520.597c0,2.634-4.077,4.67-9.175,4.67s-9.258-2.036-9.258-4.67v-34.821c0-2.634,4.162-4.672,9.26-4.672
	s9.175,2.038,9.175,4.672v14.438c0,2.548-4.077,4.585-9.175,4.585h-3.568v14.016c0,0.932,1.529,1.783,3.568,1.783
	c1.953,0,3.568-0.85,3.568-1.783v-3.738c0-0.594,1.191-0.934,2.802-0.934c1.614,0,2.803,0.34,2.803,0.934V520.597z
	 M-144.489,487.559c0-0.933-1.615-1.783-3.568-1.783c-2.039,0-3.568,0.851-3.568,1.783v12.146h3.568c1.953,0,3.568-0.765,3.568-1.7
	V487.559z M-112.994,520.597c0,2.634-4.078,4.67-9.176,4.67s-9.258-2.036-9.258-4.67v-34.821c0-2.634,4.162-4.672,9.26-4.672
	c5.1,0,9.176,2.038,9.176,4.672v14.438c0,2.548-4.077,4.585-9.176,4.585h-3.566v14.016c0,0.932,1.528,1.783,3.566,1.783
	c1.954,0,3.568-0.85,3.568-1.783v-3.738c0-0.594,1.191-0.934,2.803-0.934c1.614,0,2.804,0.34,2.804,0.934V520.597z
	 M-118.601,487.559c0-0.933-1.614-1.783-3.568-1.783c-2.038,0-3.566,0.851-3.566,1.783v12.146h3.566c1.954,0,3.568-0.765,3.568-1.7
	V487.559z M-87.105,523.822c0,0.594-1.189,1.021-2.804,1.021c-1.613,0-2.803-0.427-2.803-1.021v-36.263
	c0-0.933-1.613-1.783-3.568-1.783c-2.039,0-3.567,0.851-3.567,1.783v36.263c0,0.594-1.274,1.021-2.887,1.021
	c-1.53,0-2.804-0.427-2.804-1.021v-55.456c0-0.594,1.274-0.934,2.804-0.934c1.613,0,2.887,0.34,2.887,0.934v13.759
	c1.274-0.596,2.718-1.021,4.417-1.021c5.523,0,8.326,2.549,8.326,4.672v38.046H-87.105z M-73.696,472.104
	c0,0.593-1.274,0.934-2.888,0.934c-1.529,0-2.803-0.341-2.803-0.934v-3.738c0-0.594,1.274-0.934,2.803-0.934
	c1.614,0,2.888,0.34,2.888,0.934V472.104z M-73.696,523.822c0,0.594-1.274,1.021-2.888,1.021c-1.529,0-2.803-0.427-2.803-1.021
	v-41.272c0-0.595,1.274-1.021,2.803-1.021c1.614,0,2.888,0.426,2.888,1.021V523.822z M-60.335,523.822
	c0,0.594-1.274,1.021-2.888,1.021c-1.529,0-2.803-0.427-2.803-1.021v-55.456c0-0.594,1.274-0.934,2.803-0.934
	c1.614,0,2.888,0.34,2.888,0.934V523.822z M-46.974,523.822c0,0.594-1.274,1.021-2.888,1.021c-1.529,0-2.804-0.427-2.804-1.021
	v-55.456c0-0.594,1.274-0.934,2.804-0.934c1.613,0,2.888,0.34,2.888,0.934V523.822z M81.339,520.68c0,2.551-4.164,4.587-9.261,4.587
	s-9.257-2.036-9.257-4.587v-5.604c0-0.594,1.275-0.934,2.887-0.934c1.53,0,2.804,0.34,2.804,0.934v3.738
	c0,0.932,1.613,1.783,3.566,1.783c1.956,0,3.571-0.85,3.571-1.783v-11.638c0-0.933-1.615-1.698-3.571-1.698
	c-5.097,0-9.257-2.038-9.257-4.67v-15.032c0-2.634,4.16-4.672,9.257-4.672s9.261,2.038,9.261,4.672v5.522
	c0,0.593-1.273,0.933-2.889,0.933c-1.528,0-2.802-0.34-2.802-0.933v-3.739c0-0.933-1.615-1.783-3.571-1.783
	c-1.953,0-3.566,0.851-3.566,1.783v10.956c0,1.018,1.613,1.868,3.566,1.868c5.097,0,9.261,2.038,9.261,4.585V520.68z
	 M105.581,487.051h-6.371v36.771c0,0.594-1.277,1.021-2.891,1.021c-1.528,0-2.803-0.427-2.803-1.021v-36.771h-5.69
	c-0.51,0-0.933-1.105-0.933-2.549s0.423-2.548,0.933-2.548h5.69v-13.589c0-0.594,1.278-0.934,2.803-0.934
	c1.618,0,2.891,0.34,2.891,0.934v13.589h6.371c0.593,0,0.933,1.104,0.933,2.548S106.173,487.051,105.581,487.051z M131.029,520.597
	c0,2.634-4.079,4.67-9.174,4.67c-5.098,0-9.262-2.036-9.262-4.67v-38.048c0-0.595,1.277-1.021,2.804-1.021
	c1.615,0,2.891,0.426,2.891,1.021v36.178c0,1.019,1.526,1.87,3.567,1.87c1.953,0,3.566-0.85,3.566-1.87v-36.178
	c0-0.595,1.19-1.021,2.804-1.021c1.615,0,2.804,0.426,2.804,1.021V520.597z M157.166,520.597c0,2.634-4.077,4.67-9.174,4.67
	c-5.098,0-9.262-2.036-9.262-4.67v-34.821c0-2.123,2.804-4.672,8.411-4.672c1.613,0,3.057,0.425,4.417,1.021v-13.759
	c0-0.594,1.192-0.934,2.804-0.934c1.613,0,2.804,0.34,2.804,0.934V520.597L157.166,520.597z M151.558,487.559
	c0-0.933-1.615-1.783-3.568-1.783c-2.041,0-3.569,0.851-3.569,1.783v31.255c0,0.932,1.528,1.783,3.569,1.783
	c1.953,0,3.568-0.85,3.568-1.783V487.559z M170.574,472.104c0,0.593-1.275,0.934-2.887,0.934c-1.53,0-2.803-0.341-2.803-0.934
	v-3.738c0-0.594,1.272-0.934,2.803-0.934c1.614,0,2.887,0.34,2.887,0.934V472.104z M170.574,523.822
	c0,0.594-1.275,1.021-2.887,1.021c-1.53,0-2.803-0.427-2.803-1.021v-41.272c0-0.595,1.272-1.021,2.803-1.021
	c1.614,0,2.887,0.426,2.887,1.021V523.822z M196.686,520.597c0,2.634-4.077,4.67-9.174,4.67c-5.098,0-9.259-2.036-9.259-4.67
	v-34.821c0-2.634,4.161-4.672,9.259-4.672c5.097,0,9.174,2.038,9.174,4.672V520.597z M191.079,487.559
	c0-0.933-1.613-1.783-3.57-1.783c-2.037,0-3.567,0.851-3.567,1.783v31.255c0,0.932,1.53,1.783,3.567,1.783
	c1.957,0,3.57-0.85,3.57-1.783V487.559z"/>
</svg>
