<svg baseProfile="tiny" id="Ebene_1" xmlns="http://www.w3.org/2000/svg" width="400" height="100.439" viewBox="-203.314 444.153 400 100.439"><path d="M11.657 544.603C6.96 521.769-.564 495.908 8.237 463.04c-.804 6.416-1.375 12.702-1.625 19.113 5.016-3.751 8.44-7.969 10.712-13.058-1.98 6.244-5.146 11.795-10.827 16.546-.102 6.141.761 12.291 1.752 18.354 10.352-5.999 16.137-12.566 19.256-21.876-1.738 7.055-4.519 13.308-9.584 18.624-2.771 2.866-5.777 5.367-8.913 7.715 2.165 12.259 6.352 24.245 9.981 36.142h-7.333v.003zM1.309 497.681c.075-1.781.201-3.555.363-5.323-5.459-6.486-8.843-13.79-10.87-23.267.886 7.741 2.282 15.518 6.292 22.34a63.532 63.532 0 0 0 4.215 6.25z"/><path fill="#FFF" d="M44.531 481.1c0-20.403-16.542-36.947-36.949-36.947-20.404 0-36.948 16.544-36.948 36.947 0 16.687 11.065 30.763 26.254 35.35-.229 9.367.311 18.794.744 28.153h6.877c-1.576-12.075-3.442-24.136-3.39-36.251.014-3.554.039-7.136.193-10.715a61.88 61.88 0 0 1-4.215-6.206c-4.009-6.822-5.406-14.599-6.292-22.34 2.665 6.617 5.684 12.975 10.651 18.22.249.24.502.471.755.704.143-.986.247-1.979.439-2.959 1.46-7.513 3.364-14.694 5.586-22.017a233.762 233.762 0 0 0-1.501 16.176c4.271-2.804 7.623-6.078 10.59-10.118-1.98 6.248-5.147 11.795-10.829 16.546-.077 4.738.436 9.483 1.122 14.19a43.211 43.211 0 0 0 5.906-2.961c6.213-3.81 10.396-8.455 13.981-14.75-1.738 7.055-4.517 13.307-9.583 18.623-2.772 2.864-5.779 5.354-8.911 7.7 2.161 12.264 6.35 24.254 9.979 36.157h7.64c-3.594-9.094-7.633-18.201-10.866-27.506 16.465-3.73 28.767-18.407 28.767-35.996zm-229.155 5.951h-6.371v36.771c0 .594-1.273 1.021-2.888 1.021-1.528 0-2.803-.427-2.803-1.021v-36.771h-5.695c-.509 0-.934-1.105-.934-2.549s.425-2.548.934-2.548h5.693v-13.589c0-.594 1.274-.934 2.803-.934 1.614 0 2.888.34 2.888.934v13.589h6.37c.595 0 .936 1.104.936 2.548s-.338 2.549-.933 2.549zm19.842-.595h-3.568c-2.038 0-3.566.765-3.566 1.698v35.667c0 .594-1.274 1.021-2.889 1.021-1.528 0-2.803-.427-2.803-1.021v-37.876c0-2.548 4.162-4.585 9.26-4.585h3.567c.51 0 .935 1.105.935 2.549-.002 1.357-.425 2.547-.936 2.547zm25.898 34.141c0 2.634-4.077 4.67-9.175 4.67s-9.258-2.036-9.258-4.67v-34.821c0-2.634 4.162-4.672 9.26-4.672s9.175 2.038 9.175 4.672v14.438c0 2.548-4.077 4.585-9.175 4.585h-3.568v14.016c0 .932 1.529 1.783 3.568 1.783 1.953 0 3.568-.85 3.568-1.783v-3.738c0-.594 1.191-.934 2.802-.934 1.614 0 2.803.34 2.803.934v5.52zm-5.605-33.038c0-.933-1.615-1.783-3.568-1.783-2.039 0-3.568.851-3.568 1.783v12.146h3.568c1.953 0 3.568-.765 3.568-1.7v-10.446zm31.495 33.038c0 2.634-4.078 4.67-9.176 4.67s-9.258-2.036-9.258-4.67v-34.821c0-2.634 4.162-4.672 9.26-4.672 5.1 0 9.176 2.038 9.176 4.672v14.438c0 2.548-4.077 4.585-9.176 4.585h-3.566v14.016c0 .932 1.528 1.783 3.566 1.783 1.954 0 3.568-.85 3.568-1.783v-3.738c0-.594 1.191-.934 2.803-.934 1.614 0 2.804.34 2.804.934v5.52zm-5.607-33.038c0-.933-1.614-1.783-3.568-1.783-2.038 0-3.566.851-3.566 1.783v12.146h3.566c1.954 0 3.568-.765 3.568-1.7v-10.446zm31.496 36.263c0 .594-1.189 1.021-2.804 1.021-1.613 0-2.803-.427-2.803-1.021v-36.263c0-.933-1.613-1.783-3.568-1.783-2.039 0-3.567.851-3.567 1.783v36.263c0 .594-1.274 1.021-2.887 1.021-1.53 0-2.804-.427-2.804-1.021v-55.456c0-.594 1.274-.934 2.804-.934 1.613 0 2.887.34 2.887.934v13.759c1.274-.596 2.718-1.021 4.417-1.021 5.523 0 8.326 2.549 8.326 4.672v38.046h-.001zm13.409-51.718c0 .593-1.274.934-2.888.934-1.529 0-2.803-.341-2.803-.934v-3.738c0-.594 1.274-.934 2.803-.934 1.614 0 2.888.34 2.888.934v3.738zm0 51.718c0 .594-1.274 1.021-2.888 1.021-1.529 0-2.803-.427-2.803-1.021V482.55c0-.595 1.274-1.021 2.803-1.021 1.614 0 2.888.426 2.888 1.021v41.272zm13.361 0c0 .594-1.274 1.021-2.888 1.021-1.529 0-2.803-.427-2.803-1.021v-55.456c0-.594 1.274-.934 2.803-.934 1.614 0 2.888.34 2.888.934v55.456zm13.361 0c0 .594-1.274 1.021-2.888 1.021-1.529 0-2.804-.427-2.804-1.021v-55.456c0-.594 1.274-.934 2.804-.934 1.613 0 2.888.34 2.888.934v55.456zm128.313-3.142c0 2.551-4.164 4.587-9.261 4.587s-9.257-2.036-9.257-4.587v-5.604c0-.594 1.275-.934 2.887-.934 1.53 0 2.804.34 2.804.934v3.738c0 .932 1.613 1.783 3.566 1.783 1.956 0 3.571-.85 3.571-1.783v-11.638c0-.933-1.615-1.698-3.571-1.698-5.097 0-9.257-2.038-9.257-4.67v-15.032c0-2.634 4.16-4.672 9.257-4.672s9.261 2.038 9.261 4.672v5.522c0 .593-1.273.933-2.889.933-1.528 0-2.802-.34-2.802-.933v-3.739c0-.933-1.615-1.783-3.571-1.783-1.953 0-3.566.851-3.566 1.783v10.956c0 1.018 1.613 1.868 3.566 1.868 5.097 0 9.261 2.038 9.261 4.585v15.712zm24.242-33.629H99.21v36.771c0 .594-1.277 1.021-2.891 1.021-1.528 0-2.803-.427-2.803-1.021v-36.771h-5.69c-.51 0-.933-1.105-.933-2.549s.423-2.548.933-2.548h5.69v-13.589c0-.594 1.278-.934 2.803-.934 1.618 0 2.891.34 2.891.934v13.589h6.371c.593 0 .933 1.104.933 2.548s-.341 2.549-.933 2.549zm25.448 33.546c0 2.634-4.079 4.67-9.174 4.67-5.098 0-9.262-2.036-9.262-4.67v-38.048c0-.595 1.277-1.021 2.804-1.021 1.615 0 2.891.426 2.891 1.021v36.178c0 1.019 1.526 1.87 3.567 1.87 1.953 0 3.566-.85 3.566-1.87v-36.178c0-.595 1.19-1.021 2.804-1.021 1.615 0 2.804.426 2.804 1.021v38.048zm26.137 0c0 2.634-4.077 4.67-9.174 4.67-5.098 0-9.262-2.036-9.262-4.67v-34.821c0-2.123 2.804-4.672 8.411-4.672 1.613 0 3.057.425 4.417 1.021v-13.759c0-.594 1.192-.934 2.804-.934 1.613 0 2.804.34 2.804.934v52.231zm-5.608-33.038c0-.933-1.615-1.783-3.568-1.783-2.041 0-3.569.851-3.569 1.783v31.255c0 .932 1.528 1.783 3.569 1.783 1.953 0 3.568-.85 3.568-1.783v-31.255zm19.016-15.455c0 .593-1.275.934-2.887.934-1.53 0-2.803-.341-2.803-.934v-3.738c0-.594 1.272-.934 2.803-.934 1.614 0 2.887.34 2.887.934v3.738zm0 51.718c0 .594-1.275 1.021-2.887 1.021-1.53 0-2.803-.427-2.803-1.021V482.55c0-.595 1.272-1.021 2.803-1.021 1.614 0 2.887.426 2.887 1.021v41.272zm26.112-3.225c0 2.634-4.077 4.67-9.174 4.67-5.098 0-9.259-2.036-9.259-4.67v-34.821c0-2.634 4.161-4.672 9.259-4.672 5.097 0 9.174 2.038 9.174 4.672v34.821zm-5.607-33.038c0-.933-1.613-1.783-3.57-1.783-2.037 0-3.567.851-3.567 1.783v31.255c0 .932 1.53 1.783 3.567 1.783 1.957 0 3.57-.85 3.57-1.783v-31.255z"/></svg>