<svg baseProfile="tiny" id="Ebene_1" xmlns="http://www.w3.org/2000/svg" width="400" height="120" viewBox="0 0 400 120"><path d="M214.966 100.451c-4.694-22.836-12.218-48.696-3.418-81.562-.804 6.416-1.372 12.699-1.625 19.113 5.015-3.753 8.439-7.969 10.712-13.059-1.981 6.244-5.146 11.795-10.827 16.546-.101 6.144.761 12.291 1.752 18.356 10.352-5.999 16.14-12.566 19.256-21.878-1.737 7.055-4.517 13.31-9.586 18.624-2.771 2.866-5.777 5.364-8.913 7.714 2.167 12.26 6.354 24.246 9.981 36.144h-7.332v.002zm-10.347-46.925c.074-1.78.203-3.554.365-5.321-5.46-6.486-8.845-13.79-10.87-23.268.885 7.74 2.282 15.518 6.291 22.339 1.298 2.207 2.717 4.268 4.214 6.25z"/><path fill="#A9BA2F" d="M247.842 36.945C247.842 16.544 231.298 0 210.894 0s-36.948 16.544-36.948 36.945c0 16.687 11.064 30.763 26.255 35.35-.23 9.366.309 18.796.742 28.151h6.879c-1.576-12.074-3.442-24.134-3.394-36.247.018-3.556.041-7.137.194-10.716-1.497-1.973-2.928-4.009-4.216-6.207-4.008-6.823-5.406-14.599-6.291-22.339 2.664 6.616 5.684 12.976 10.652 18.219.246.24.5.472.753.703.143-.984.246-1.979.438-2.959 1.462-7.511 3.363-14.693 5.586-22.015-.678 5.436-1.2 10.769-1.501 16.173 4.273-2.802 7.623-6.076 10.593-10.117-1.984 6.248-5.148 11.795-10.83 16.546-.079 4.738.436 9.482 1.118 14.192 2.032-.853 4.027-1.811 5.906-2.964 6.213-3.811 10.397-8.454 13.98-14.75-1.737 7.055-4.518 13.309-9.584 18.624-2.772 2.863-5.779 5.354-8.909 7.699 2.161 12.262 6.35 24.252 9.979 36.153h7.641c-3.593-9.091-7.636-18.197-10.866-27.503 16.469-3.726 28.771-18.4 28.771-35.993z"/><path fill="#C5C5C5" d="M200.593 92.984c-37.584 1.812-73.902 10.91-108.113 26.626-1.544.71-2.896-1.577-1.341-2.293 34.6-15.893 71.345-25.137 109.348-26.979.039.882.068 1.766.106 2.646zm132.652 24.333c-33.983-15.616-70.053-24.821-107.375-26.896.373.906.746 1.812 1.111 2.719 36.468 2.169 71.704 11.197 104.924 26.47 1.547.71 2.892-1.576 1.34-2.293z"/><path d="M18.69 42.897h-6.37v36.771c0 .591-1.274 1.018-2.889 1.018-1.528 0-2.804-.427-2.804-1.018V42.897H.935c-.51 0-.935-1.104-.935-2.548C0 38.903.425 37.8.935 37.8h5.692V24.213c0-.593 1.274-.934 2.804-.934 1.613 0 2.889.341 2.889.934V37.8h6.37c.594 0 .934 1.104.934 2.549s-.34 2.548-.934 2.548zm19.841-.595h-3.567c-2.039 0-3.566.766-3.566 1.701V79.67c0 .591-1.274 1.018-2.889 1.018-1.528 0-2.804-.427-2.804-1.018V41.793c0-2.549 4.162-4.585 9.26-4.585h3.568c.51 0 .934 1.104.934 2.549-.002 1.354-.426 2.545-.936 2.545zm25.901 34.141c0 2.635-4.078 4.67-9.177 4.67-5.098 0-9.26-2.035-9.26-4.67V41.625c0-2.635 4.162-4.672 9.26-4.672 5.099 0 9.177 2.037 9.177 4.672v14.437c0 2.549-4.078 4.585-9.177 4.585h-3.567v14.018c0 .931 1.528 1.783 3.567 1.783 1.953 0 3.567-.85 3.567-1.783v-3.739c0-.593 1.191-.933 2.803-.933 1.614 0 2.803.34 2.803.933v5.521h.004v-.004zm-5.609-33.038c0-.934-1.614-1.782-3.567-1.782-2.039 0-3.567.848-3.567 1.782v12.146h3.567c1.953 0 3.567-.766 3.567-1.7V43.405zm31.498 33.038c0 2.635-4.077 4.67-9.177 4.67-5.099 0-9.261-2.035-9.261-4.67V41.625c0-2.635 4.162-4.672 9.261-4.672 5.1 0 9.177 2.037 9.177 4.672v14.437c0 2.549-4.077 4.585-9.177 4.585h-3.566v14.018c0 .931 1.528 1.783 3.566 1.783 1.954 0 3.567-.85 3.567-1.783v-3.739c0-.593 1.191-.933 2.804-.933 1.613 0 2.804.34 2.804.933l.002 5.517zm-5.61-33.038c0-.934-1.612-1.782-3.567-1.782-2.038 0-3.566.848-3.566 1.782v12.146h3.566c1.954 0 3.567-.766 3.567-1.7V43.405zm31.498 36.265c0 .591-1.188 1.018-2.803 1.018s-2.804-.427-2.804-1.018V43.404c0-.934-1.613-1.782-3.566-1.782-2.039 0-3.568.848-3.568 1.782v36.264c0 .591-1.272 1.018-2.887 1.018-1.53 0-2.804-.427-2.804-1.018V24.213c0-.593 1.272-.934 2.804-.934 1.613 0 2.887.341 2.887.934v13.759c1.274-.593 2.719-1.018 4.417-1.018 5.523 0 8.326 2.549 8.326 4.672l-.002 38.044zm13.407-51.717c0 .593-1.274.934-2.888.934-1.529 0-2.805-.341-2.805-.934v-3.739c0-.593 1.274-.934 2.805-.934 1.612 0 2.888.341 2.888.934v3.739zm0 51.717c0 .591-1.274 1.018-2.888 1.018-1.529 0-2.805-.427-2.805-1.018V38.397c0-.596 1.274-1.019 2.805-1.019 1.612 0 2.888.423 2.888 1.019V79.67zm13.363 0c0 .591-1.273 1.018-2.888 1.018-1.528 0-2.804-.427-2.804-1.018V24.213c0-.593 1.274-.934 2.804-.934 1.613 0 2.888.341 2.888.934V79.67zm13.36 0c0 .591-1.273 1.018-2.888 1.018-1.529 0-2.804-.427-2.804-1.018V24.213c0-.593 1.273-.934 2.804-.934 1.613 0 2.888.341 2.888.934V79.67zm128.312-3.144c0 2.552-4.166 4.587-9.261 4.587-5.099 0-9.258-2.035-9.258-4.587v-5.604c0-.593 1.277-.935 2.888-.935 1.529 0 2.804.342 2.804.935v3.739c0 .931 1.613 1.782 3.566 1.782 1.952 0 3.569-.849 3.569-1.782V63.024c0-.934-1.617-1.699-3.569-1.699-5.099 0-9.258-2.039-9.258-4.668V41.625c0-2.634 4.159-4.672 9.258-4.672 5.095 0 9.261 2.038 9.261 4.672v5.521c0 .594-1.275.934-2.892.934-1.525 0-2.8-.34-2.8-.934v-3.738c0-.935-1.617-1.783-3.569-1.783-1.953 0-3.566.848-3.566 1.783v10.954c0 1.02 1.613 1.869 3.566 1.869 5.095 0 9.261 2.038 9.261 4.584v15.711zm24.239-33.629h-6.37v36.771c0 .591-1.277 1.018-2.89 1.018-1.529 0-2.804-.427-2.804-1.018V42.897h-5.69c-.51 0-.933-1.104-.933-2.549 0-1.445.423-2.549.933-2.549h5.69V24.213c0-.593 1.277-.934 2.804-.934 1.617 0 2.89.341 2.89.934V37.8h6.37c.594 0 .934 1.104.934 2.549.001 1.444-.334 2.548-.934 2.548zm25.449 33.546c0 2.635-4.077 4.67-9.174 4.67-5.093 0-9.257-2.035-9.257-4.67V38.397c0-.596 1.275-1.019 2.8-1.019 1.617 0 2.892.423 2.892 1.019v36.179c0 1.018 1.529 1.869 3.565 1.869 1.958 0 3.571-.849 3.571-1.869V38.397c0-.596 1.191-1.019 2.799-1.019 1.618 0 2.804.423 2.804 1.019v38.046zm26.138 0c0 2.635-4.079 4.67-9.175 4.67-5.097 0-9.261-2.035-9.261-4.67V41.625c0-2.123 2.804-4.672 8.41-4.672 1.613 0 3.057.425 4.417 1.018V24.212c0-.593 1.194-.934 2.804-.934 1.613 0 2.805.341 2.805.934v52.231zm-5.608-33.038c0-.934-1.613-1.782-3.566-1.782-2.039 0-3.57.848-3.57 1.782v31.256c0 .931 1.531 1.782 3.57 1.782 1.953 0 3.566-.849 3.566-1.782V43.405zm19.015-15.452c0 .593-1.271.934-2.886.934-1.531 0-2.8-.341-2.8-.934v-3.739c0-.593 1.275-.934 2.8-.934 1.617 0 2.886.341 2.886.934v3.739zm0 51.717c0 .591-1.271 1.018-2.886 1.018-1.531 0-2.8-.427-2.8-1.018V38.397c0-.596 1.275-1.019 2.8-1.019 1.617 0 2.886.423 2.886 1.019V79.67zm26.117-3.227c0 2.635-4.081 4.67-9.174 4.67-5.098 0-9.261-2.035-9.261-4.67V41.625c0-2.635 4.163-4.672 9.261-4.672 5.093 0 9.174 2.037 9.174 4.672v34.818zm-5.611-33.038c0-.934-1.613-1.782-3.566-1.782-2.039 0-3.569.848-3.569 1.782v31.256c0 .931 1.53 1.782 3.569 1.782 1.953 0 3.566-.849 3.566-1.782V43.405z"/></svg>